<?xml version="1.0" encoding="iso-8859-1"?>
<!-- Generator: Adobe Illustrator 19.0.0, SVG Export Plug-In . SVG Version: 6.00 Build 0)  -->
<svg version="1.1" id="Layer_1" xmlns="http://www.w3.org/2000/svg" xmlns:xlink="http://www.w3.org/1999/xlink" x="0px" y="0px"
	 viewBox="0 0 512 512" style="enable-background:new 0 0 512 512;" xml:space="preserve">
<circle style="fill:#E16B5A;" cx="256" cy="256" r="256"/>
<path style="fill:#FFD464;" d="M362.156,142.008c-38.468-43.128-70.872-64.112-99.052-64.112c-28.2,0-48.5,19.412-48.5,38.704
	c0,61.62,36.192,68.268,51.764,68.268c4.272,0,8.392-0.436,12.188-1.12l13.78,151.752c0.572,6.156,4.712,11.392,10.564,13.344
	l35.172,11.72l-10.088,141.104c21.344-6.244,41.552-15.144,60.192-26.4c14.684-49.936,28.396-112.524,28.396-172.244
	C416.572,239.484,396.732,180.796,362.156,142.008z"/>
<path style="fill:#F2C95F;" d="M362.144,142.016c-38.464-43.128-70.872-64.108-99.052-64.108c-2.404,0-4.724,0.188-7,0.448
	c26.544,3.112,56.78,24,92.156,63.66c34.572,38.788,54.416,97.476,54.416,161.012c0,63.428-15.464,130.1-31.14,181.404
	c5.656-2.868,11.224-5.888,16.628-9.152c14.684-49.94,28.396-112.528,28.396-172.252
	C416.564,239.492,396.72,180.804,362.144,142.016z"/>
<path style="fill:#2995CC;" d="M396.816,443.668c11-43.44,19.748-92.956,19.748-140.64c0-63.536-19.844-122.224-54.416-161.012
	c-13.132-14.724-25.536-26.8-37.328-36.416l-12.02,31.308c14.272-0.776,39.752,34.892,23.54,57.584
	c-27.78,3.008-35.892,44.304-23.54,68.616C325.14,287.42,403.472,341.436,396.816,443.668z"/>
<path style="fill:#268CBF;" d="M351.316,130.336c-2.624-2.732-5.224-5.372-7.788-7.884c-0.252-0.26-0.524-0.528-0.776-0.788
	c-6.116-5.944-12.08-11.276-17.88-16.012c-0.02-0.016-0.036-0.032-0.056-0.052l-3.46,9.008c8.632,7.852,17.584,16.956,26.904,27.408
	c34.572,38.788,54.416,97.476,54.416,161.012c0,30.748-3.648,62.248-9.172,92.396c3.076,14.752,4.456,30.776,3.32,48.252
	c1.3-5.132,2.568-10.36,3.784-15.644c0.156-0.692,0.312-1.392,0.476-2.084c1.18-5.164,2.328-10.376,3.416-15.648
	c0.016-0.096,0.048-0.188,0.064-0.276c1.084-5.26,2.096-10.588,3.08-15.956c0.184-1.008,0.36-2.036,0.544-3.052
	c0.916-5.14,1.768-10.316,2.56-15.528c0.04-0.228,0.076-0.444,0.104-0.676c0.788-5.308,1.492-10.66,2.14-16.012
	c0.144-1.22,0.284-2.432,0.424-3.652c0.584-5.188,1.124-10.396,1.564-15.588c0.024-0.22,0.052-0.42,0.072-0.648
	c0.428-5.312,0.752-10.632,1.008-15.944c0.064-1.292,0.112-2.588,0.164-3.892c0.212-5.36,0.36-10.712,0.36-16.032
	c0-63.536-19.844-122.224-54.416-161.012c-3.004-3.368-5.956-6.552-8.888-9.644C352.6,131.684,351.96,131.016,351.316,130.336z"/>
<path style="fill:#2995CC;" d="M324.812,105.6c-22.752-18.54-43.156-27.704-61.72-27.704c-28.196,0-48.5,19.412-48.5,38.704
	c0,0.664,0.028,1.272,0.04,1.924C237.34,106.068,276.908,92.284,324.812,105.6z"/>
<path style="fill:#268CBF;" d="M256.132,78.352c-0.008,0.004-0.024,0.004-0.032,0.004c15.292,1.796,31.824,9.524,49.836,23.304
	c6.124,0.88,12.416,2.144,18.876,3.94c-8.428-6.872-16.54-12.432-24.348-16.748c-0.224-0.12-0.44-0.24-0.664-0.36
	c-2.34-1.268-4.652-2.416-6.94-3.46c-0.236-0.108-0.468-0.228-0.712-0.332c-4.82-2.148-9.516-3.756-14.1-4.888
	c-0.576-0.14-1.132-0.256-1.708-0.38c-1.696-0.38-3.372-0.672-5.036-0.908c-0.604-0.084-1.22-0.184-1.812-0.248
	c-2.156-0.244-4.284-0.396-6.4-0.396c-1.36,0-2.68,0.084-4,0.172C258.1,78.148,257.112,78.244,256.132,78.352z"/>
<path style="fill:#99602E;" d="M60.12,420.756c7.364,8.748,15.272,17.028,23.728,24.716
	c77.812-27.708,218.612-63.516,377.472-36.556c6.708-8.988,12.796-18.46,18.292-28.304
	C297.704,346.112,139.752,390.412,60.12,420.756z"/>
<path style="fill:#F5F5F5;" d="M267.48,136.864c-3.608,0-7.232-1.544-9.868-4.052c-2.508-2.656-4.032-6.292-4.032-9.928
	c0-3.632,1.524-7.252,4.032-9.92c5.148-5.172,14.584-5.172,19.728,0c2.5,2.668,4.036,6.288,4.036,9.92
	c0,3.636-1.536,7.272-4.036,9.928C274.7,135.32,271.084,136.864,267.48,136.864z"/>
<g>
	<path style="fill:#242424;" d="M267.48,132.232c-2.412,0-4.82-1.02-6.584-2.7c-1.672-1.772-2.688-4.196-2.688-6.62
		c0-2.416,1.016-4.84,2.688-6.612c3.428-3.448,9.72-3.448,13.148,0c1.664,1.772,2.688,4.2,2.688,6.612
		c0,2.424-1.024,4.848-2.688,6.62C272.296,131.212,269.892,132.232,267.48,132.232z"/>
	<path style="fill:#242424;" d="M324.812,105.596c-21.144,55.584-46.948,62.188-79.56,51.96
		c-33.772-10.584-27.288-54.3-19.204-65.48c0.048-0.036,0.084-0.084,0.128-0.128c-7.92,3.74-18.036,9.544-28.568,18.348
		c-10.708,8.916-16.94,20.688-18.036,34.04c-2.416,29.4,15.784,59.584,35.016,65.476c13.056-0.756,17.86-24.724,20.416-33.02
		c10.896,9.02,22.836,9.804,30.508,9.804c4.268,0,9.388-0.572,13.168-1.252C298.752,171.7,312.3,160.072,324.812,105.596
		L324.812,105.596z"/>
</g>
<g>
</g>
<g>
</g>
<g>
</g>
<g>
</g>
<g>
</g>
<g>
</g>
<g>
</g>
<g>
</g>
<g>
</g>
<g>
</g>
<g>
</g>
<g>
</g>
<g>
</g>
<g>
</g>
<g>
</g>
</svg>
